<svg width="25" height="24" viewBox="0 0 25 24" fill="none" xmlns="http://www.w3.org/2000/svg">
<path fill-rule="evenodd" clip-rule="evenodd" d="M12.0917 10.9091C14.1168 10.9091 15.7583 9.44384 15.7583 7.63636C15.7583 5.82889 14.1168 4.36364 12.0917 4.36364C10.0666 4.36364 8.42501 5.82889 8.42501 7.63636C8.42501 9.44384 10.0666 10.9091 12.0917 10.9091ZM12.0917 8.72727C12.7667 8.72727 13.3139 8.23885 13.3139 7.63636C13.3139 7.03388 12.7667 6.54545 12.0917 6.54545C11.4167 6.54545 10.8695 7.03388 10.8695 7.63636C10.8695 8.23885 11.4167 8.72727 12.0917 8.72727Z" fill="white"/>
<path fill-rule="evenodd" clip-rule="evenodd" d="M13.8289 19.9372C16.3299 17.0818 20.6472 11.5351 20.6472 7.27273C20.6472 3.25611 16.8168 0 12.0917 0C7.36658 0 3.53612 3.25611 3.53612 7.27273C3.53612 11.5351 7.85356 17.0818 10.3544 19.9372C11.2526 20.9628 12.9307 20.9628 13.8289 19.9372ZM16.0303 13.0873C17.3714 10.8939 18.2028 8.83999 18.2028 7.27273C18.2028 4.56019 15.5805 2.18182 12.0917 2.18182C8.60284 2.18182 5.98057 4.56019 5.98057 7.27273C5.98057 8.83999 6.81194 10.8939 8.15312 13.0873C9.38945 15.1092 10.9076 17.0096 12.0917 18.3769C13.2757 17.0096 14.7939 15.1092 16.0303 13.0873Z" fill="white"/>
<path fill-rule="evenodd" clip-rule="evenodd" d="M5.30629 18.5446C5.66109 18.4039 6.05402 18.2722 6.48073 18.1525C6.04845 17.5357 5.61706 16.8944 5.19729 16.236C2.69363 17.0359 1.09167 18.2619 1.09167 19.6364C1.09167 22.0464 6.01655 24 12.0917 24C18.1669 24 23.0917 22.0464 23.0917 19.6364C23.0917 18.2619 21.4897 17.0359 18.9861 16.236C18.5663 16.8944 18.135 17.5357 17.7027 18.1525C18.1293 18.2722 18.5223 18.4039 18.8771 18.5446C19.6857 18.8654 20.1887 19.1908 20.4564 19.442C20.5518 19.5313 20.6025 19.596 20.6287 19.6364C20.6025 19.6768 20.5518 19.7414 20.4564 19.8308C20.1887 20.082 19.6857 20.4074 18.8771 20.7281C17.2661 21.3673 14.8691 21.8182 12.0917 21.8182C9.31426 21.8182 6.91731 21.3673 5.30629 20.7281C4.49768 20.4074 3.99465 20.082 3.72685 19.8308C3.6316 19.7414 3.58084 19.6768 3.55465 19.6364C3.58084 19.596 3.6316 19.5313 3.72685 19.442C3.99465 19.1908 4.49768 18.8654 5.30629 18.5446ZM20.6546 19.5855C20.6546 19.5855 20.6541 19.5892 20.6509 19.5967C20.6525 19.5892 20.6546 19.5855 20.6546 19.5855ZM3.52881 19.5855C3.52881 19.5855 3.53083 19.5892 3.53244 19.5967C3.52921 19.5892 3.52881 19.5855 3.52881 19.5855ZM3.52881 19.6872C3.52881 19.6872 3.52921 19.6836 3.53244 19.6762C3.53083 19.6835 3.52881 19.6872 3.52881 19.6872ZM20.6509 19.6762C20.6541 19.6836 20.6546 19.6872 20.6546 19.6872C20.6546 19.6872 20.6525 19.6835 20.6509 19.6762Z" fill="white"/>
</svg>
