<svg width="56" height="57" viewBox="0 0 56 57" fill="none" xmlns="http://www.w3.org/2000/svg">
<path d="M39.1363 21.9167C29.5936 22.3902 21.8902 30.0936 21.4167 39.6363C17.0459 37.4691 14.1139 32.9527 14.1139 27.8172C14.1139 20.5326 20.0326 14.6139 27.3172 14.6139C32.4527 14.6139 36.9691 17.5459 39.1363 21.9167Z" fill="white"/>
<path d="M45.1096 15.1601L47.9141 12.3556C48.6245 11.6452 48.6245 10.4979 47.9141 9.7876L45.3464 7.21983C44.636 6.5095 43.4887 6.5095 42.7784 7.21983L39.9739 10.0244C37.3331 8.14873 34.2738 6.85565 30.9592 6.2911V2.32123C30.9592 1.3197 30.1397 0.5 29.138 0.5H25.4958C24.4942 0.5 23.6745 1.31953 23.6745 2.32123V6.29128C20.36 6.85583 17.3005 8.1489 14.6599 10.0246L11.8554 7.22C11.1451 6.50968 9.99775 6.50968 9.2876 7.22L6.71965 9.78778C6.00933 10.4981 6.00933 11.6454 6.71965 12.3557L9.5242 15.1603C7.64838 17.801 6.3553 20.8604 5.79075 24.1749H1.82122C0.8197 24.1749 0 24.9944 0 25.9961V29.6384C0 30.6399 0.819525 31.4596 1.82122 31.4596H5.79128C6.35582 34.7741 7.6489 37.8336 9.52472 40.4742L6.72018 43.2788C6.00985 43.9891 6.00985 45.1364 6.72018 45.8467L9.28813 48.4145C9.99827 49.1248 11.1456 49.1248 11.8559 48.4145L14.6605 45.6099C17.2828 47.4674 20.3061 48.7605 23.584 49.325C22.5096 47.3036 21.7812 45.0454 21.5079 42.6596C15.5346 40.3284 11.3823 34.5191 11.3823 27.8173C11.3823 19.0395 18.5393 11.8824 27.3173 11.8824C34.0191 11.8824 39.8286 16.0346 42.1596 22.0079C44.5452 22.281 46.8034 23.0094 48.825 24.0841C48.2604 20.806 46.9672 17.7825 45.1096 15.1601Z" fill="white"/>
<path d="M40.065 24.63C31.2872 24.63 24.1301 31.787 24.1301 40.565C24.1301 49.3611 31.287 56.5 40.065 56.5C48.843 56.5 56 49.3611 56 40.565C56 31.7872 48.843 24.63 40.065 24.63ZM44.7272 43.2968C45.2553 43.8249 45.2553 44.699 44.7272 45.2272C44.454 45.5004 44.1081 45.6279 43.7621 45.6279C43.4161 45.6279 43.07 45.5004 42.7968 45.2272L40.065 42.4955L37.3333 45.2272C37.0601 45.5004 36.7141 45.6279 36.3681 45.6279C36.0222 45.6279 35.676 45.5004 35.4029 45.2272C34.8747 44.699 34.8747 43.8249 35.4029 43.2968L38.1346 40.565L35.4029 37.8333C34.8747 37.3051 34.8747 36.431 35.4029 35.9029C35.931 35.3747 36.8051 35.3747 37.3333 35.9029L40.065 38.6346L42.7968 35.9029C43.3249 35.3747 44.199 35.3747 44.7272 35.9029C45.2553 36.431 45.2553 37.3051 44.7272 37.8333L41.9955 40.565L44.7272 43.2968Z" fill="white"/>
</svg>
